<svg xmlns="http://www.w3.org/2000/svg" xmlns:xlink="http://www.w3.org/1999/xlink" width="40" zoomAndPan="magnify" viewBox="0 0 30 30.000001" height="40" preserveAspectRatio="xMidYMid meet" version="1.0"><defs><g/><clipPath id="2e7a2e56e6"><path d="M 1.609375 1.125 L 28.464844 1.125 L 28.464844 27.980469 L 1.609375 27.980469 Z M 1.609375 1.125 " clip-rule="nonzero"/></clipPath></defs><g clip-path="url(#2e7a2e56e6)"><path fill="#ffffff" d="M 28.464844 14.550781 C 28.464844 15.433594 28.378906 16.308594 28.207031 17.171875 C 28.035156 18.035156 27.777344 18.875 27.441406 19.691406 C 27.105469 20.503906 26.691406 21.277344 26.199219 22.011719 C 25.710938 22.746094 25.15625 23.421875 24.53125 24.046875 C 23.90625 24.671875 23.230469 25.226562 22.496094 25.71875 C 21.761719 26.207031 20.988281 26.621094 20.175781 26.957031 C 19.359375 27.296875 18.519531 27.550781 17.65625 27.722656 C 16.792969 27.894531 15.917969 27.980469 15.035156 27.980469 C 14.15625 27.980469 13.28125 27.894531 12.417969 27.722656 C 11.550781 27.550781 10.710938 27.296875 9.898438 26.957031 C 9.082031 26.621094 8.308594 26.207031 7.578125 25.71875 C 6.84375 25.226562 6.164062 24.671875 5.542969 24.046875 C 4.917969 23.421875 4.363281 22.746094 3.871094 22.011719 C 3.382812 21.277344 2.96875 20.503906 2.632812 19.691406 C 2.292969 18.875 2.039062 18.035156 1.867188 17.171875 C 1.695312 16.308594 1.609375 15.433594 1.609375 14.550781 C 1.609375 13.671875 1.695312 12.796875 1.867188 11.933594 C 2.039062 11.066406 2.292969 10.226562 2.632812 9.414062 C 2.96875 8.597656 3.382812 7.824219 3.871094 7.09375 C 4.363281 6.359375 4.917969 5.679688 5.542969 5.058594 C 6.164062 4.433594 6.84375 3.878906 7.578125 3.386719 C 8.308594 2.898438 9.082031 2.484375 9.898438 2.148438 C 10.710938 1.808594 11.550781 1.554688 12.417969 1.382812 C 13.28125 1.210938 14.15625 1.125 15.035156 1.125 C 15.917969 1.125 16.792969 1.210938 17.65625 1.382812 C 18.519531 1.554688 19.359375 1.808594 20.175781 2.148438 C 20.988281 2.484375 21.761719 2.898438 22.496094 3.386719 C 23.230469 3.878906 23.90625 4.433594 24.53125 5.058594 C 25.15625 5.679688 25.710938 6.359375 26.199219 7.09375 C 26.691406 7.824219 27.105469 8.597656 27.441406 9.414062 C 27.777344 10.226562 28.035156 11.066406 28.207031 11.933594 C 28.378906 12.796875 28.464844 13.671875 28.464844 14.550781 Z M 28.464844 14.550781 " fill-opacity="1" fill-rule="nonzero"/></g><g fill="#000000" fill-opacity="1"><g transform="translate(3.510806, 17.603989)"><g><path d="M 2.984375 -0.976562 C 2.304688 -0.976562 1.714844 -1.316406 1.675781 -2.0625 L 0.277344 -2.0625 C 0.285156 -0.535156 1.546875 0.148438 2.929688 0.148438 C 4.210938 0.148438 5.527344 -0.394531 5.527344 -1.871094 C 5.527344 -4.257812 1.90625 -3.457031 1.90625 -4.570312 C 1.90625 -5.039062 2.449219 -5.222656 2.835938 -5.222656 C 3.527344 -5.222656 3.90625 -5.011719 3.980469 -4.359375 L 5.316406 -4.359375 C 5.269531 -5.785156 4.109375 -6.359375 2.820312 -6.359375 C 1.675781 -6.359375 0.480469 -5.75 0.480469 -4.460938 C 0.480469 -2.148438 4.101562 -2.929688 4.101562 -1.714844 C 4.101562 -1.152344 3.417969 -0.976562 2.984375 -0.976562 Z M 2.984375 -0.976562 "/></g></g></g><g fill="#000000" fill-opacity="1"><g transform="translate(11.158262, 17.603989)"><g><path d="M 8.367188 0 L 7.148438 -6.265625 L 5.511719 -6.265625 L 4.210938 -1.871094 L 2.902344 -6.265625 L 1.261719 -6.265625 L 0.046875 0 L 1.566406 0 L 2.304688 -4.320312 L 3.527344 0 L 4.882812 0 L 6.109375 -4.320312 L 6.847656 0 Z M 8.367188 0 "/></g></g></g><g fill="#000000" fill-opacity="1"><g transform="translate(21.41322, 17.603989)"><g><path d="M 3.574219 -1.832031 C 3.574219 -1.417969 3.226562 -1.078125 2.808594 -1.078125 L 1.933594 -1.078125 L 1.933594 -2.589844 L 2.808594 -2.589844 C 3.226562 -2.589844 3.574219 -2.238281 3.574219 -1.832031 Z M 3.140625 -4.449219 C 3.140625 -4.054688 2.808594 -3.722656 2.414062 -3.722656 L 1.933594 -3.722656 L 1.933594 -5.179688 L 2.414062 -5.179688 C 2.808594 -5.179688 3.140625 -4.855469 3.140625 -4.449219 Z M 4.984375 -1.796875 C 4.984375 -2.644531 4.414062 -3.207031 3.714844 -3.371094 C 4.183594 -3.585938 4.460938 -4.0625 4.460938 -4.699219 C 4.460938 -5.554688 3.777344 -6.265625 2.707031 -6.265625 L 0.554688 -6.265625 L 0.554688 0 L 3.085938 0 C 4.285156 0 4.984375 -0.71875 4.984375 -1.796875 Z M 4.984375 -1.796875 "/></g></g></g></svg>