<svg xmlns="http://www.w3.org/2000/svg" xmlns:xlink="http://www.w3.org/1999/xlink" width="40" zoomAndPan="magnify" viewBox="0 0 30 30.000001" height="40" preserveAspectRatio="xMidYMid meet" version="1.0"><defs><g/></defs><g fill="#000000" fill-opacity="1"><g transform="translate(3.510806, 17.603989)"><g><path d="M 2.984375 -0.976562 C 2.304688 -0.976562 1.714844 -1.316406 1.675781 -2.0625 L 0.277344 -2.0625 C 0.285156 -0.535156 1.546875 0.148438 2.929688 0.148438 C 4.210938 0.148438 5.527344 -0.394531 5.527344 -1.871094 C 5.527344 -4.257812 1.90625 -3.457031 1.90625 -4.570312 C 1.90625 -5.039062 2.449219 -5.222656 2.835938 -5.222656 C 3.527344 -5.222656 3.90625 -5.011719 3.980469 -4.359375 L 5.316406 -4.359375 C 5.269531 -5.785156 4.109375 -6.359375 2.820312 -6.359375 C 1.675781 -6.359375 0.480469 -5.75 0.480469 -4.460938 C 0.480469 -2.148438 4.101562 -2.929688 4.101562 -1.714844 C 4.101562 -1.152344 3.417969 -0.976562 2.984375 -0.976562 Z M 2.984375 -0.976562 "/></g></g></g><g fill="#000000" fill-opacity="1"><g transform="translate(11.158262, 17.603989)"><g><path d="M 8.367188 0 L 7.148438 -6.265625 L 5.511719 -6.265625 L 4.210938 -1.871094 L 2.902344 -6.265625 L 1.261719 -6.265625 L 0.046875 0 L 1.566406 0 L 2.304688 -4.320312 L 3.527344 0 L 4.882812 0 L 6.109375 -4.320312 L 6.847656 0 Z M 8.367188 0 "/></g></g></g><g fill="#000000" fill-opacity="1"><g transform="translate(21.41322, 17.603989)"><g><path d="M 3.574219 -1.832031 C 3.574219 -1.417969 3.226562 -1.078125 2.808594 -1.078125 L 1.933594 -1.078125 L 1.933594 -2.589844 L 2.808594 -2.589844 C 3.226562 -2.589844 3.574219 -2.238281 3.574219 -1.832031 Z M 3.140625 -4.449219 C 3.140625 -4.054688 2.808594 -3.722656 2.414062 -3.722656 L 1.933594 -3.722656 L 1.933594 -5.179688 L 2.414062 -5.179688 C 2.808594 -5.179688 3.140625 -4.855469 3.140625 -4.449219 Z M 4.984375 -1.796875 C 4.984375 -2.644531 4.414062 -3.207031 3.714844 -3.371094 C 4.183594 -3.585938 4.460938 -4.0625 4.460938 -4.699219 C 4.460938 -5.554688 3.777344 -6.265625 2.707031 -6.265625 L 0.554688 -6.265625 L 0.554688 0 L 3.085938 0 C 4.285156 0 4.984375 -0.71875 4.984375 -1.796875 Z M 4.984375 -1.796875 "/></g></g></g></svg>