<svg xmlns="http://www.w3.org/2000/svg" xmlns:xlink="http://www.w3.org/1999/xlink" width="250" zoomAndPan="magnify" viewBox="0 0 187.5 74.999997" height="100" preserveAspectRatio="xMidYMid meet" version="1.0"><defs><g/></defs><g fill="#000000" fill-opacity="1"><g transform="translate(50.496112, 49.224728)"><g><path d="M 11.238281 -3.675781 C 8.671875 -3.675781 6.453125 -4.960938 6.3125 -7.769531 L 1.039062 -7.769531 C 1.074219 -2.011719 5.828125 0.554688 11.03125 0.554688 C 15.851562 0.554688 20.8125 -1.492188 20.8125 -7.042969 C 20.8125 -16.027344 7.179688 -13.007812 7.179688 -17.203125 C 7.179688 -18.972656 9.226562 -19.667969 10.683594 -19.667969 C 13.285156 -19.667969 14.707031 -18.871094 14.984375 -16.40625 L 20.015625 -16.40625 C 19.839844 -21.785156 15.46875 -23.933594 10.613281 -23.933594 C 6.3125 -23.933594 1.804688 -21.644531 1.804688 -16.789062 C 1.804688 -8.082031 15.4375 -11.03125 15.4375 -6.453125 C 15.4375 -4.335938 12.867188 -3.675781 11.238281 -3.675781 Z M 11.238281 -3.675781 "/></g></g></g><g fill="#000000" fill-opacity="1"><g transform="translate(79.286835, 49.224728)"><g><path d="M 31.496094 0 L 26.917969 -23.585938 L 20.742188 -23.585938 L 15.851562 -7.042969 L 10.925781 -23.585938 L 4.753906 -23.585938 L 0.171875 0 L 5.898438 0 L 8.671875 -16.269531 L 13.285156 0 L 18.382812 0 L 22.996094 -16.269531 L 25.773438 0 Z M 31.496094 0 "/></g></g></g><g fill="#000000" fill-opacity="1"><g transform="translate(117.894139, 49.224728)"><g><path d="M 13.457031 -6.902344 C 13.457031 -5.34375 12.140625 -4.058594 10.578125 -4.058594 L 7.285156 -4.058594 L 7.285156 -9.746094 L 10.578125 -9.746094 C 12.140625 -9.746094 13.457031 -8.429688 13.457031 -6.902344 Z M 11.828125 -16.753906 C 11.828125 -15.261719 10.578125 -14.015625 9.089844 -14.015625 L 7.285156 -14.015625 L 7.285156 -19.496094 L 9.089844 -19.496094 C 10.578125 -19.496094 11.828125 -18.28125 11.828125 -16.753906 Z M 18.765625 -6.765625 C 18.765625 -9.957031 16.617188 -12.070312 13.980469 -12.695312 C 15.75 -13.492188 16.789062 -15.296875 16.789062 -17.691406 C 16.789062 -20.917969 14.222656 -23.585938 10.199219 -23.585938 L 2.082031 -23.585938 L 2.082031 0 L 11.621094 0 C 16.128906 0 18.765625 -2.707031 18.765625 -6.765625 Z M 18.765625 -6.765625 "/></g></g></g></svg>